# Blender v2.79 (sub 0) OBJ File: ''
# www.blender.org
mtllib untitled.mtl
o delivery_chute1
v 340.000000 0.000000 -25.773153
v 340.000000 519.619995 0.000000
v 0.000000 0.000000 -25.773153
v 0.000000 519.619995 0.000000
v 340.000000 15.504479 -325.372925
v 0.000000 15.504479 -325.372925
vn 0.0000 -0.0495 0.9988
vn 0.0000 -0.9987 -0.0517
vn 0.0000 0.5423 -0.8402
vn 1.0000 0.0000 0.0000
vn -1.0000 0.0000 0.0000
usemtl None
s off
f 1//1 2//1 3//1
f 3//1 2//1 4//1
f 5//2 1//2 6//2
f 6//2 1//2 3//2
f 2//3 5//3 4//3
f 4//3 5//3 6//3
f 1//4 5//4 2//4
f 4//5 6//5 3//5
