# CAD Exchanger 3.5.0 (cadexchanger.com)
# Object Count: 11
mtllib WRO-2018-ARC-Tetrastack-Border-CAD.mtl
g Body2
v 2407.000000 0.000000 600.000000
v 2357.000000 0.000000 600.000000
v 2407.000000 16.000000 600.000000
v 2357.000000 16.000000 600.000000
v 2357.000000 0.000000 1100.000000
v 2407.000000 0.000000 1100.000000
v 2357.000000 16.000000 1100.000000
v 2407.000000 16.000000 1100.000000
v 2407.000000 0.000000 2350.000000
v 2357.000000 0.000000 2350.000000
v 2357.000000 0.000000 -10.000000
v 2407.000000 0.000000 -10.000000
v 2357.000000 100.000000 2350.000000
v 2357.000000 100.000000 -10.000000
v 2407.000000 100.000000 -10.000000
v 2407.000000 100.000000 2350.000000
vn 0.000000 0.000000 1.000000
vn 0.000000 0.000000 1.000000
vn 0.000000 0.000000 1.000000
vn 0.000000 0.000000 1.000000
vn 0.000000 0.000000 -1.000000
vn 0.000000 0.000000 -1.000000
vn 0.000000 0.000000 -1.000000
vn 0.000000 0.000000 -1.000000
vn 0.000000 -1.000000 0.000000
vn 0.000000 -1.000000 0.000000
vn 0.000000 -1.000000 0.000000
vn 0.000000 -1.000000 0.000000
vn -0.000000 -1.000000 -0.000000
vn -0.000000 -1.000000 -0.000000
vn -0.000000 -1.000000 -0.000000
vn -0.000000 -1.000000 -0.000000
vn -0.000000 -1.000000 -0.000000
vn -0.000000 -1.000000 -0.000000
vn -0.000000 -1.000000 -0.000000
vn -0.000000 -1.000000 -0.000000
vn -1.000000 0.000000 0.000000
vn -1.000000 0.000000 0.000000
vn -1.000000 0.000000 0.000000
vn -1.000000 0.000000 0.000000
vn -1.000000 0.000000 0.000000
vn -1.000000 0.000000 0.000000
vn -1.000000 0.000000 0.000000
vn -1.000000 0.000000 0.000000
vn 0.000000 0.000000 -1.000000
vn 0.000000 0.000000 -1.000000
vn 0.000000 0.000000 -1.000000
vn 0.000000 0.000000 -1.000000
vn 1.000000 -0.000000 0.000000
vn 1.000000 -0.000000 0.000000
vn 1.000000 -0.000000 0.000000
vn 1.000000 -0.000000 0.000000
vn 1.000000 -0.000000 0.000000
vn 1.000000 -0.000000 0.000000
vn 1.000000 -0.000000 0.000000
vn 1.000000 -0.000000 0.000000
vn 0.000000 0.000000 1.000000
vn 0.000000 0.000000 1.000000
vn 0.000000 0.000000 1.000000
vn 0.000000 0.000000 1.000000
vn 0.000000 1.000000 0.000000
vn 0.000000 1.000000 0.000000
vn 0.000000 1.000000 0.000000
vn 0.000000 1.000000 0.000000
usemtl Material_1
f 3//3 2//2 1//1
f 3//3 4//4 2//2
f 7//7 6//6 5//5
f 7//7 8//8 6//6
f 3//11 7//10 4//9
f 3//11 8//12 7//10
f 5//13 6//14 9//15
f 5//13 9//15 10//16
f 11//19 1//17 2//18
f 11//19 12//20 1//17
f 4//22 14//27 11//28
f 4//22 11//28 2//21
f 10//25 7//23 5//24
f 13//26 7//23 10//25
f 13//26 14//27 4//22
f 13//26 4//22 7//23
f 15//32 12//30 11//29
f 14//31 15//32 11//29
f 8//40 16//37 9//38
f 8//40 9//38 6//39
f 12//35 3//33 1//34
f 15//36 3//33 12//35
f 15//36 16//37 8//40
f 15//36 8//40 3//33
f 16//43 10//41 9//42
f 16//43 13//44 10//41
f 13//46 15//48 14//45
f 16//47 15//48 13//46
g Body3
v -3.000000 0.000000 50.000000
v -3.000000 0.000000 0.000000
v -3.000000 100.000000 50.000000
v -3.000000 100.000000 0.000000
v 2357.000000 0.000000 0.000000
v 2357.000000 100.000000 0.000000
v 2357.000000 0.000000 50.000000
v 2357.000000 100.000000 50.000000
vn -1.000000 0.000000 0.000000
vn -1.000000 0.000000 0.000000
vn -1.000000 0.000000 0.000000
vn -1.000000 0.000000 0.000000
vn 0.000000 0.000000 -1.000000
vn 0.000000 0.000000 -1.000000
vn 0.000000 0.000000 -1.000000
vn 0.000000 0.000000 -1.000000
vn 1.000000 -0.000000 0.000000
vn 1.000000 -0.000000 0.000000
vn 1.000000 -0.000000 0.000000
vn 1.000000 -0.000000 0.000000
vn 0.000000 0.000000 1.000000
vn 0.000000 0.000000 1.000000
vn 0.000000 0.000000 1.000000
vn 0.000000 0.000000 1.000000
vn 0.000000 1.000000 0.000000
vn 0.000000 1.000000 0.000000
vn 0.000000 1.000000 0.000000
vn 0.000000 1.000000 0.000000
vn 0.000000 -1.000000 -0.000000
vn 0.000000 -1.000000 -0.000000
vn 0.000000 -1.000000 -0.000000
vn 0.000000 -1.000000 -0.000000
usemtl Material_1
f 20//52 18//50 17//49
f 19//51 20//52 17//49
f 20//55 21//54 18//53
f 20//55 22//56 21//54
f 24//60 23//57 21//58
f 22//59 24//60 21//58
f 24//63 17//62 23//61
f 24//63 19//64 17//62
f 24//66 22//67 20//68
f 24//66 20//68 19//65
f 17//70 21//72 23//69
f 18//71 21//72 17//70
g Body4
v 57.000000 0.000000 2410.000000
v 7.000000 0.000000 2410.000000
v 57.000000 100.000000 2410.000000
v 7.000000 100.000000 2410.000000
v 7.000000 0.000000 50.000000
v 7.000000 100.000000 50.000000
v 57.000000 0.000000 50.000000
v 57.000000 100.000000 50.000000
vn 0.000000 0.000000 1.000000
vn 0.000000 0.000000 1.000000
vn 0.000000 0.000000 1.000000
vn 0.000000 0.000000 1.000000
vn -1.000000 0.000000 0.000000
vn -1.000000 0.000000 0.000000
vn -1.000000 0.000000 0.000000
vn -1.000000 0.000000 0.000000
vn 0.000000 0.000000 -1.000000
vn 0.000000 0.000000 -1.000000
vn 0.000000 0.000000 -1.000000
vn 0.000000 0.000000 -1.000000
vn 1.000000 -0.000000 0.000000
vn 1.000000 -0.000000 0.000000
vn 1.000000 -0.000000 0.000000
vn 1.000000 -0.000000 0.000000
vn 0.000000 1.000000 0.000000
vn 0.000000 1.000000 0.000000
vn 0.000000 1.000000 0.000000
vn 0.000000 1.000000 0.000000
vn -0.000000 -1.000000 -0.000000
vn -0.000000 -1.000000 -0.000000
vn -0.000000 -1.000000 -0.000000
vn -0.000000 -1.000000 -0.000000
usemtl Material_1
f 28//76 26//74 25//73
f 27//75 28//76 25//73
f 28//79 29//78 26//77
f 28//79 30//80 29//78
f 32//84 31//81 29//82
f 30//83 32//84 29//82
f 32//87 25//86 31//85
f 32//87 27//88 25//86
f 28//92 32//90 30//91
f 27//89 32//90 28//92
f 29//96 31//93 25//94
f 29//96 25//94 26//95
g Body7
v 2346.581652 7.218265 600.000000
v 2419.182386 837.048449 600.000000
v 2286.809971 12.447610 600.000000
v 2359.410704 842.277794 600.000000
v 2419.182386 837.048449 650.000000
v 2359.410704 842.277794 650.000000
v 2346.581652 7.218265 650.000000
v 2286.809971 12.447610 650.000000
vn -0.000000 0.000000 -1.000000
vn -0.000000 0.000000 -1.000000
vn -0.000000 0.000000 -1.000000
vn -0.000000 0.000000 -1.000000
vn 0.087156 0.996195 0.000000
vn 0.087156 0.996195 0.000000
vn 0.087156 0.996195 0.000000
vn 0.087156 0.996195 0.000000
vn 0.000000 -0.000000 1.000000
vn 0.000000 -0.000000 1.000000
vn 0.000000 -0.000000 1.000000
vn 0.000000 -0.000000 1.000000
vn -0.087156 -0.996195 -0.000000
vn -0.087156 -0.996195 -0.000000
vn -0.087156 -0.996195 -0.000000
vn -0.087156 -0.996195 -0.000000
vn -0.996195 0.087156 0.000000
vn -0.996195 0.087156 0.000000
vn -0.996195 0.087156 0.000000
vn -0.996195 0.087156 0.000000
vn 0.996195 -0.087156 0.000000
vn 0.996195 -0.087156 0.000000
vn 0.996195 -0.087156 0.000000
vn 0.996195 -0.087156 0.000000
usemtl Material_1
f 35//99 34//98 33//97
f 35//99 36//100 34//98
f 38//104 37//102 34//101
f 36//103 38//104 34//101
f 37//105 40//108 39//106
f 38//107 40//108 37//105
f 40//111 33//110 39//109
f 40//111 35//112 33//110
f 38//115 35//113 40//114
f 38//115 36//116 35//113
f 33//118 34//119 37//120
f 33//118 37//120 39//117
g Body5
v 2417.000000 0.000000 2350.000000
v 2417.000000 0.000000 2400.000000
v 2417.000000 100.000000 2350.000000
v 2417.000000 100.000000 2400.000000
v 57.000000 0.000000 2400.000000
v 57.000000 100.000000 2400.000000
v 57.000000 0.000000 2350.000000
v 57.000000 100.000000 2350.000000
vn 1.000000 -0.000000 0.000000
vn 1.000000 -0.000000 0.000000
vn 1.000000 -0.000000 0.000000
vn 1.000000 -0.000000 0.000000
vn 0.000000 0.000000 1.000000
vn 0.000000 0.000000 1.000000
vn 0.000000 0.000000 1.000000
vn 0.000000 0.000000 1.000000
vn -1.000000 0.000000 0.000000
vn -1.000000 0.000000 0.000000
vn -1.000000 0.000000 0.000000
vn -1.000000 0.000000 0.000000
vn 0.000000 0.000000 -1.000000
vn 0.000000 0.000000 -1.000000
vn 0.000000 0.000000 -1.000000
vn 0.000000 0.000000 -1.000000
vn 0.000000 1.000000 0.000000
vn 0.000000 1.000000 0.000000
vn 0.000000 1.000000 0.000000
vn 0.000000 1.000000 0.000000
vn -0.000000 -1.000000 -0.000000
vn -0.000000 -1.000000 -0.000000
vn -0.000000 -1.000000 -0.000000
vn -0.000000 -1.000000 -0.000000
usemtl Material_1
f 44//124 42//122 41//121
f 43//123 44//124 41//121
f 44//127 45//126 42//125
f 44//127 46//128 45//126
f 46//131 47//129 45//130
f 46//131 48//132 47//129
f 48//135 41//134 47//133
f 48//135 43//136 41//134
f 44//140 43//137 48//138
f 44//140 48//138 46//139
f 45//144 41//142 42//143
f 47//141 41//142 45//144
g Body9
v 2414.824599 787.238714 1050.000000
v 2414.824599 787.238714 650.000000
v 2355.052917 792.468059 1050.000000
v 2355.052917 792.468059 650.000000
v 2419.182386 837.048449 1050.000000
v 2359.410704 842.277794 1050.000000
v 2419.182386 837.048449 650.000000
v 2359.410704 842.277794 650.000000
vn -0.087156 -0.996195 0.000000
vn -0.087156 -0.996195 0.000000
vn -0.087156 -0.996195 0.000000
vn -0.087156 -0.996195 0.000000
vn 0.000000 -0.000000 1.000000
vn 0.000000 -0.000000 1.000000
vn 0.000000 -0.000000 1.000000
vn 0.000000 -0.000000 1.000000
vn 0.996195 -0.087156 0.000000
vn 0.996195 -0.087156 0.000000
vn 0.996195 -0.087156 0.000000
vn 0.996195 -0.087156 0.000000
vn -0.000000 0.000000 -1.000000
vn -0.000000 0.000000 -1.000000
vn -0.000000 0.000000 -1.000000
vn -0.000000 0.000000 -1.000000
vn 0.087156 0.996195 0.000000
vn 0.087156 0.996195 0.000000
vn 0.087156 0.996195 0.000000
vn 0.087156 0.996195 0.000000
vn -0.996195 0.087156 0.000000
vn -0.996195 0.087156 0.000000
vn -0.996195 0.087156 0.000000
vn -0.996195 0.087156 0.000000
usemtl Material_1
f 49//145 52//148 50//146
f 51//147 52//148 49//145
f 51//149 49//150 53//151
f 54//152 51//149 53//151
f 50//154 55//155 53//156
f 50//154 53//156 49//153
f 52//158 56//159 55//160
f 52//158 55//160 50//157
f 55//161 54//164 53//162
f 56//163 54//164 55//161
f 51//166 56//168 52//165
f 54//167 56//168 51//166
g Body6
v 2827.000000 0.000000 600.000000
v 2287.000000 0.000000 600.000000
v 2287.000000 12.000000 600.000000
v 2827.000000 12.000000 600.000000
v 2827.000000 0.000000 1100.000000
v 2827.000000 12.000000 1100.000000
v 2287.000000 0.000000 1100.000000
v 2287.000000 12.000000 1100.000000
vn 0.000000 0.000000 -1.000000
vn 0.000000 0.000000 -1.000000
vn 0.000000 0.000000 -1.000000
vn 0.000000 0.000000 -1.000000
vn 1.000000 -0.000000 0.000000
vn 1.000000 -0.000000 0.000000
vn 1.000000 -0.000000 0.000000
vn 1.000000 -0.000000 0.000000
vn 0.000000 0.000000 1.000000
vn 0.000000 0.000000 1.000000
vn 0.000000 0.000000 1.000000
vn 0.000000 0.000000 1.000000
vn -1.000000 0.000000 0.000000
vn -1.000000 0.000000 0.000000
vn -1.000000 0.000000 0.000000
vn -1.000000 0.000000 0.000000
vn 0.000000 1.000000 0.000000
vn 0.000000 1.000000 0.000000
vn 0.000000 1.000000 0.000000
vn 0.000000 1.000000 0.000000
vn 0.000000 -1.000000 0.000000
vn 0.000000 -1.000000 0.000000
vn 0.000000 -1.000000 0.000000
vn 0.000000 -1.000000 0.000000
usemtl Material_2
f 59//171 57//169 58//170
f 59//171 60//172 57//169
f 57//174 62//176 61//173
f 60//175 62//176 57//174
f 62//179 63//177 61//178
f 62//179 64//180 63//177
f 63//182 59//184 58//181
f 64//183 59//184 63//182
f 60//188 59//185 64//186
f 62//187 60//188 64//186
f 63//190 57//191 61//192
f 58//189 57//191 63//190
g Body8
v 2346.581652 7.218265 1050.000000
v 2346.581652 7.218265 650.000000
v 2286.809971 12.447610 1050.000000
v 2286.809971 12.447610 650.000000
v 2354.251358 94.883399 1050.000000
v 2294.479676 100.112743 1050.000000
v 2354.251358 94.883399 650.000000
v 2294.479676 100.112743 650.000000
vn -0.087156 -0.996195 -0.000000
vn -0.087156 -0.996195 -0.000000
vn -0.087156 -0.996195 -0.000000
vn -0.087156 -0.996195 -0.000000
vn 0.000000 -0.000000 1.000000
vn 0.000000 -0.000000 1.000000
vn 0.000000 -0.000000 1.000000
vn 0.000000 -0.000000 1.000000
vn 0.996195 -0.087156 -0.000000
vn 0.996195 -0.087156 -0.000000
vn 0.996195 -0.087156 -0.000000
vn 0.996195 -0.087156 -0.000000
vn -0.000000 0.000000 -1.000000
vn -0.000000 0.000000 -1.000000
vn -0.000000 0.000000 -1.000000
vn -0.000000 0.000000 -1.000000
vn 0.087156 0.996195 0.000000
vn 0.087156 0.996195 0.000000
vn 0.087156 0.996195 0.000000
vn 0.087156 0.996195 0.000000
vn -0.996195 0.087156 0.000000
vn -0.996195 0.087156 0.000000
vn -0.996195 0.087156 0.000000
vn -0.996195 0.087156 0.000000
usemtl Material_1
f 67//195 66//194 65//193
f 67//195 68//196 66//194
f 70//199 65//198 69//197
f 70//199 67//200 65//198
f 71//202 69//203 65//204
f 66//201 71//202 65//204
f 66//208 72//205 71//207
f 68//206 72//205 66//208
f 72//211 69//210 71//209
f 72//211 70//212 69//210
f 67//213 72//215 68//216
f 70//214 72//215 67//213
g Body10
v 2419.182386 837.048449 1050.000000
v 2419.182386 837.048449 1100.000000
v 2359.410704 842.277794 1050.000000
v 2359.410704 842.277794 1100.000000
v 2346.581652 7.218265 1100.000000
v 2286.809971 12.447610 1100.000000
v 2346.581652 7.218265 1050.000000
v 2286.809971 12.447610 1050.000000
vn 0.087156 0.996195 0.000000
vn 0.087156 0.996195 0.000000
vn 0.087156 0.996195 0.000000
vn 0.087156 0.996195 0.000000
vn 0.000000 -0.000000 1.000000
vn 0.000000 -0.000000 1.000000
vn 0.000000 -0.000000 1.000000
vn 0.000000 -0.000000 1.000000
vn -0.087156 -0.996195 -0.000000
vn -0.087156 -0.996195 -0.000000
vn -0.087156 -0.996195 -0.000000
vn -0.087156 -0.996195 -0.000000
vn -0.000000 0.000000 -1.000000
vn -0.000000 0.000000 -1.000000
vn -0.000000 0.000000 -1.000000
vn -0.000000 0.000000 -1.000000
vn -0.996195 0.087156 0.000000
vn -0.996195 0.087156 0.000000
vn -0.996195 0.087156 0.000000
vn -0.996195 0.087156 0.000000
vn 0.996195 -0.087156 -0.000000
vn 0.996195 -0.087156 0.000000
vn 0.996195 -0.087156 -0.000000
vn 0.996195 -0.087156 0.000000
usemtl Material_1
f 76//220 74//218 73//217
f 75//219 76//220 73//217
f 74//221 78//224 77//222
f 76//223 78//224 74//221
f 78//227 79//226 77//225
f 78//227 80//228 79//226
f 80//231 73//229 79//230
f 80//231 75//232 73//229
f 76//236 75//233 80//234
f 76//236 80//234 78//235
f 77//240 73//237 74//239
f 79//238 73//237 77//240
g Body11
v 2418.485140 829.078891 610.000000
v 2347.453210 17.180212 610.000000
v 2421.473724 828.817424 610.000000
v 2350.441794 16.918745 610.000000
v 2347.453210 17.180212 1090.000000
v 2350.441794 16.918745 1090.000000
v 2418.485140 829.078891 1090.000000
v 2421.473724 828.817424 1090.000000
vn 0.000000 0.000000 -1.000000
vn 0.000000 0.000000 -1.000000
vn 0.000000 0.000000 -1.000000
vn 0.000000 0.000000 -1.000000
vn -0.087156 -0.996195 -0.000000
vn -0.087156 -0.996195 -0.000000
vn -0.087156 -0.996195 -0.000000
vn -0.087156 -0.996195 -0.000000
vn 0.000000 0.000000 1.000000
vn 0.000000 0.000000 1.000000
vn 0.000000 0.000000 1.000000
vn 0.000000 0.000000 1.000000
vn 0.087156 0.996195 -0.000000
vn 0.087156 0.996195 -0.000000
vn 0.087156 0.996195 -0.000000
vn 0.087156 0.996195 -0.000000
vn -0.996195 0.087156 0.000000
vn -0.996195 0.087156 0.000000
vn -0.996195 0.087156 0.000000
vn -0.996195 0.087156 0.000000
vn 0.996195 -0.087156 0.000000
vn 0.996195 -0.087156 0.000000
vn 0.996195 -0.087156 0.000000
vn 0.996195 -0.087156 0.000000
usemtl Material_2
f 83//243 82//242 81//241
f 83//243 84//244 82//242
f 82//245 86//248 85//246
f 84//247 86//248 82//245
f 85//250 88//252 87//249
f 86//251 88//252 85//250
f 88//255 81//254 87//253
f 88//255 83//256 81//254
f 81//258 82//259 85//260
f 81//258 85//260 87//257
f 83//261 88//262 86//263
f 83//261 86//263 84//264
g Body18
v 2417.177250 814.129639 815.581665
v 2419.182386 837.048449 815.581665
v 2417.177250 814.129639 890.581665
v 2419.182386 837.048449 890.581665
v 2813.172476 12.894186 890.581665
v 2827.000000 12.000000 890.581665
v 2419.238066 837.043578 890.581665
v 2813.172476 12.894186 815.581665
v 2419.238066 837.043578 815.581665
v 2827.000000 12.000000 815.581665
vn -0.996195 0.087156 0.000000
vn -0.996195 0.087156 0.000000
vn -0.996195 0.087156 0.000000
vn -0.996195 0.087156 0.000000
vn -0.000000 0.000000 1.000000
vn -0.000000 0.000000 1.000000
vn -0.000000 0.000000 1.000000
vn -0.000000 0.000000 1.000000
vn -0.000000 0.000000 1.000000
vn -0.896486 -0.443071 -0.000000
vn -0.896486 -0.443071 -0.000000
vn -0.896486 -0.443071 -0.000000
vn -0.896486 -0.443071 -0.000000
vn 0.000000 0.000000 -1.000000
vn 0.000000 0.000000 -1.000000
vn 0.000000 0.000000 -1.000000
vn 0.000000 0.000000 -1.000000
vn 0.000000 0.000000 -1.000000
vn -0.064532 -0.997916 -0.000000
vn -0.064532 -0.997916 -0.000000
vn -0.064532 -0.997916 -0.000000
vn -0.064532 -0.997916 -0.000000
vn 0.896486 0.443071 -0.000000
vn 0.896486 0.443071 -0.000000
vn 0.896486 0.443071 -0.000000
vn 0.896486 0.443071 -0.000000
vn 0.087156 0.996195 -0.000000
vn 0.087156 0.996195 -0.000000
vn 0.087156 0.996195 -0.000000
vn 0.087156 0.996195 -0.000000
usemtl Material_1
f 91//267 90//266 89//265
f 92//268 90//266 91//267
f 91//270 95//273 92//269
f 94//272 91//270 93//271
f 94//272 95//273 91//270
f 89//275 96//276 93//277
f 89//275 93//277 91//274
f 89//278 98//281 96//282
f 97//280 89//278 90//279
f 97//280 98//281 89//278
f 96//284 94//285 93//286
f 98//283 94//285 96//284
f 98//290 97//288 95//287
f 94//289 98//290 95//287
f 92//292 97//294 90//291
f 95//293 97//294 92//292
